<?xml version="1.0" encoding="UTF-8"?>
<svg width="30px" height="30px" viewBox="0 0 30 30" version="1.1" xmlns="http://www.w3.org/2000/svg" xmlns:xlink="http://www.w3.org/1999/xlink">
    <title>Binance Smart Chain</title>
    <g id="BLACK" stroke="none" stroke-width="1" fill="none" fill-rule="evenodd">
        <g id="1.2.1Home-Connect-to-a-wallet" transform="translate(-645.000000, -450.000000)">
            <g id="编组-28" transform="translate(360.000000, 355.000000)">
                <g id="编组-27备份" transform="translate(214.000000, 77.000000)">
                    <rect id="矩形" fill="#FFFFFF" opacity="0.049999997" x="0" y="0" width="172" height="84" rx="16"></rect>
                    <g id="Binance-Smart-Chain" transform="translate(71.000000, 18.000000)">
                        <path d="M15,0 C23.2848558,0 30,6.71514423 30,15 C30,23.2848558 23.2848558,30 15,30 C6.71514423,30 0,23.2848558 0,15 C0,6.71514423 6.71514423,0 15,0 L15,0 Z" id="路径" fill="#F0B90B"></path>
                        <path d="M8.24399038,15 L8.25480769,18.9663462 L11.625,20.9495192 L11.625,23.2716346 L6.28245192,20.1382212 L6.28245192,13.8401442 L8.24399038,15 L8.24399038,15 Z M8.24399038,11.0336538 L8.24399038,13.3449519 L6.28125,12.1838942 L6.28125,9.87259615 L8.24399038,8.71153846 L10.2163462,9.87259615 L8.24399038,11.0336538 L8.24399038,11.0336538 Z M13.0324519,9.87259615 L14.9951923,8.71153846 L16.9675481,9.87259615 L14.9951923,11.0336538 L13.0324519,9.87259615 L13.0324519,9.87259615 Z" id="形状" fill="#FFFFFF" fill-rule="nonzero"></path>
                        <path d="M9.66225962,18.1442308 L9.66225962,15.8221154 L11.625,16.9831731 L11.625,19.2944712 L9.66225962,18.1442308 L9.66225962,18.1442308 Z M13.0324519,21.78125 L14.9951923,22.9423077 L16.9675481,21.78125 L16.9675481,24.0925481 L14.9951923,25.2536058 L13.0324519,24.0925481 L13.0324519,21.78125 L13.0324519,21.78125 Z M19.7824519,9.87259615 L21.7451923,8.71153846 L23.7175481,9.87259615 L23.7175481,12.1838942 L21.7451923,13.3449519 L21.7451923,11.0336538 L19.7824519,9.87259615 L19.7824519,9.87259615 L19.7824519,9.87259615 Z M21.7451923,18.9663462 L21.7560096,15 L23.71875,13.8389423 L23.71875,20.1370192 L18.3762019,23.2704327 L18.3762019,20.9483173 L21.7451923,18.9663462 L21.7451923,18.9663462 L21.7451923,18.9663462 Z" id="形状" fill="#FFFFFF" fill-rule="nonzero"></path>
                        <polygon id="路径" fill="#FFFFFF" fill-rule="nonzero" points="20.3377404 18.1442308 18.375 19.2944712 18.375 16.9831731 20.3377404 15.8221154"></polygon>
                        <path d="M20.3377404,11.8557692 L20.3485577,14.1778846 L16.96875,16.1610577 L16.96875,20.1370192 L15.0060096,21.2872596 L13.0432692,20.1370192 L13.0432692,16.1610577 L9.66346154,14.1778846 L9.66346154,11.8557692 L11.6346154,10.6947115 L14.9939904,12.6875 L18.3737981,10.6947115 L20.3461538,11.8557692 L20.3377404,11.8557692 L20.3377404,11.8557692 Z M9.66225962,7.890625 L14.9951923,4.74639423 L20.3377404,7.890625 L18.375,9.05168269 L14.9951923,7.05889423 L11.625,9.05168269 L9.66225962,7.890625 L9.66225962,7.890625 Z" id="形状" fill="#FFFFFF" fill-rule="nonzero"></path>
                    </g>
                </g>
            </g>
        </g>
    </g>
</svg>