<svg width="50" height="29" viewBox="0 0 50 29" fill="none" xmlns="http://www.w3.org/2000/svg">
<path d="M10.0461 5.66609C18.0487 -1.8887 31.0235 -1.8887 39.0262 5.66609L39.9893 6.57532C40.3894 6.95306 40.3894 7.5655 39.9893 7.94324L36.6946 11.0535C36.4945 11.2424 36.1702 11.2424 35.9701 11.0535L34.6447 9.80233C29.0619 4.53192 20.0103 4.53192 14.4275 9.80233L13.0081 11.1423C12.8081 11.3311 12.4837 11.3311 12.2836 11.1423L8.98898 8.03197C8.58885 7.65423 8.58885 7.0418 8.98898 6.66406L10.0461 5.66609ZM45.8398 12.0985L48.7721 14.8667C49.1722 15.2444 49.1722 15.8569 48.7721 16.2346L35.5503 28.7167C35.1502 29.0944 34.5015 29.0944 34.1013 28.7167C34.1013 28.7167 34.1013 28.7167 34.1013 28.7167L24.7173 19.8578C24.6173 19.7634 24.4551 19.7634 24.3551 19.8578C24.3551 19.8578 24.3551 19.8578 24.3551 19.8578L14.9713 28.7167C14.5711 29.0944 13.9224 29.0944 13.5222 28.7167C13.5222 28.7167 13.5222 28.7167 13.5222 28.7167L0.300098 16.2345C-0.100033 15.8567 -0.100033 15.2443 0.300098 14.8665L3.23237 12.0984C3.6325 11.7206 4.28124 11.7206 4.68137 12.0984L14.0655 20.9574C14.1656 21.0518 14.3277 21.0518 14.4278 20.9574C14.4278 20.9574 14.4278 20.9574 14.4278 20.9574L23.8115 12.0984C24.2116 11.7206 24.8603 11.7206 25.2605 12.0983C25.2605 12.0983 25.2605 12.0983 25.2605 12.0983L34.6446 20.9574C34.7446 21.0518 34.9068 21.0518 35.0069 20.9574L44.3908 12.0985C44.791 11.7208 45.4397 11.7208 45.8398 12.0985Z" fill="#3B99FC"/>
</svg>
