<svg width="32" height="32" viewBox="0 0 32 32" fill="none" xmlns="http://www.w3.org/2000/svg">
<g id="Group 238274">
<path id="Vector" d="M16 0C24.8228 0 32 7.17716 32 16C32 24.8228 24.8228 32 16 32C7.17716 32 0 24.8228 0 16C0 7.17716 7.17716 0 16 0ZM16 29.7143C23.5623 29.7143 29.7143 23.5623 29.7143 16C29.7143 8.4377 23.5623 2.28571 16 2.28571C8.4377 2.28571 2.28571 8.4377 2.28571 16C2.28571 23.5623 8.4377 29.7143 16 29.7143Z" fill="#88909C"/>
<path id="Vector_2" d="M23.9154 15.5576C23.9142 15.553 23.9085 15.5484 23.9062 15.5439C23.8514 15.4147 23.7759 15.2913 23.6708 15.185C23.6697 15.1839 23.6686 15.1839 23.6674 15.1828C23.6662 15.1816 23.6662 15.1805 23.6651 15.1793L17.9897 9.48791C17.544 9.04103 16.8217 9.03876 16.3737 9.48564C15.9268 9.93135 15.9257 10.6537 16.3714 11.1016L20.0617 14.8022L9.16679 14.8022C8.5359 14.8022 8.02396 15.3142 8.02396 15.9451C8.02396 16.576 8.53596 17.088 9.16679 17.088H20.1222L16.3325 20.8366C15.8834 21.2811 15.8799 22.0034 16.3234 22.4526C16.5463 22.6788 16.8411 22.792 17.1359 22.792C17.4262 22.792 17.7165 22.6812 17.9394 22.4617L23.6628 16.8012C23.9999 16.4661 24.0845 15.9736 23.9154 15.5576Z" fill="#88909C"/>
</g>
</svg>
