<svg width="26" height="26" viewBox="0 0 26 26" fill="none" xmlns="http://www.w3.org/2000/svg">
<rect width="26" height="26" rx="6" fill="url(#paint0_linear_3442_731)"/>
<path d="M16.1506 6.00059C15.1417 5.97053 13.6283 7.09721 12.9988 7.10446C12.3713 7.09721 10.8579 5.97053 9.849 6.00059C8.83598 6.02886 8.77545 6.5102 8.8052 7.04802C8.82982 7.49643 10.0582 8.35881 10.4047 8.69424C10.4744 8.7617 10.6959 8.8 10.6959 8.8H15.6893C15.6893 8.8 15.9087 8.76172 15.9784 8.69424C16.326 8.35883 17.1698 7.49643 17.1944 7.04802C17.2242 6.5102 17.1637 6.02885 16.1506 6.00059Z" fill="white"/>
<path d="M18.5264 13.0961C17.9639 12.2188 16.3799 10.3791 15.9805 9.92192C15.8369 9.75947 15.5908 9.7334 15.5908 9.7334H10.4082C10.4082 9.7334 10.1631 9.75947 10.0196 9.92192C9.61823 10.379 8.03518 12.2188 7.47271 13.0961C6.53613 14.5639 5.72168 16.2323 6.09089 17.4304C6.46004 18.6285 7.5664 19.596 8.9502 19.7233C11.0615 19.9178 12.5615 20.002 12.999 20C13.4365 20.002 14.9365 19.9178 17.0498 19.7233C18.4335 19.596 19.54 18.6285 19.9091 17.4304C20.2783 16.2323 19.4638 14.5639 18.5264 13.0961ZM14.6241 16.9201L12.999 16.0438L11.374 16.9201L11.6846 15.0633L10.3711 13.7478L12.1875 13.4771L12.999 11.7868L13.8115 13.4771L15.6289 13.7478L14.3135 15.0633L14.6241 16.9201Z" fill="white"/>
<defs>
<linearGradient id="paint0_linear_3442_731" x1="13" y1="0" x2="13" y2="26" gradientUnits="userSpaceOnUse">
<stop stop-color="#7BF5BC"/>
<stop offset="1" stop-color="#63E194"/>
</linearGradient>
</defs>
</svg>
